<svg width="155" height="49" fill="none" xmlns="http://www.w3.org/2000/svg"><g clip-path="url(#clip0)" fill="#fff"><path d="M21.754 25.749h-5.653c-.706.969-1.413 1.887-2.07 2.906-.655.97-1.362 1.938-2.22 2.754-1.817 1.784-4.24 2.702-6.763 2.243a7.79 7.79 0 01-2.574-.918 5.401 5.401 0 01-1.11-.764c-.152-.153-.96-.714-.96-.918V49h7.874V37.017L19.685 49l9.287-.051-13.93-14.073 6.712-9.127zM53.703 20.446l-6.864-5.813c-.656-.56-1.565-.458-2.12.153h-.05l-1.313 1.632-1.06-.918c.253-.56.354-1.172.202-1.784a2.907 2.907 0 00-1.211-1.836S26.75.663 26.297.459C25.489.05 24.53-.102 23.622.102c-2.221.459-3.685 2.702-3.23 4.997.201.968.706 1.784 1.413 2.345.403.357 16.605 9.433 16.655 9.484.556.255 1.212.357 1.868.255a3.623 3.623 0 001.01-.46l1.06.919-1.162 1.427-.05.051a1.371 1.371 0 00.151 1.887l3.634 3.06a1.338 1.338 0 001.868-.154c.454-.56.404-1.427-.152-1.886l-1.918-1.632.606.51a1.338 1.338 0 001.867-.153c.455-.51.404-1.326-.1-1.785l4.592 3.876c.657.56 1.616.459 2.17-.204.506-.663.455-1.632-.201-2.193zM24.933 6.73c-1.362.306-2.725-.612-3.027-1.988-.303-1.377.605-2.754 1.968-3.06 1.363-.306 2.725.612 3.028 1.989a2.573 2.573 0 01-1.968 3.06zm15.092 9.331c-.959.204-1.867-.408-2.07-1.377a1.754 1.754 0 011.363-2.09c.96-.204 1.868.408 2.07 1.377.202.917-.404 1.886-1.363 2.09z"/><path d="M7.571 32.02c1.766-.357 3.13-1.58 4.19-2.957.807-1.07 1.564-2.192 2.371-3.314 1.666-2.244 3.281-4.538 4.947-6.782 1.514-2.04 2.977-4.079 4.492-6.17.454-.611.858-1.172 1.312-1.784-1.716-1.02-3.079-1.784-3.685-2.192-.1-.051-.201-.153-.302-.204a5.89 5.89 0 01-1.969-3.366c-.05-.357-.1-.713-.1-1.07L2.22 20.905a4.055 4.055 0 00-.656.663l-.05.05C.302 23.047-.253 25.036.1 27.024c.707 3.468 4.038 5.711 7.47 4.997zM5.552 21.925c2.12-.408 4.139.968 4.593 3.059.404 2.141-.959 4.181-3.028 4.64-2.12.408-4.139-.969-4.593-3.06-.455-2.14.908-4.231 3.028-4.64zM60.668 33.295l-5.754-7.444h-3.482v14.43h3.835v-7.649l4.543 6.119h1.262l4.492-6.068v7.597h4.189V25.85h-3.432l-5.653 7.445zM79.848 25.85l-8.126 14.43h4.593l1.514-2.855h7.42l1.564 2.856h4.946L83.532 25.8h-3.684v.05zm3.381 7.853h-3.381l1.716-3.161 1.665 3.161zM89.438 29.573h5.905V40.28h4.39V29.573h5.957V25.85H89.438v3.722zM122.496 34.57c.606-.561.909-1.377.909-2.448v-3.06c0-1.12-.303-1.937-.909-2.447-.605-.51-1.463-.764-2.675-.764h-11.81v14.43h4.34v-4.947h1.918l5.199 4.946h6.511l-6.006-4.946c1.16 0 1.968-.255 2.523-.764zm-10.145-5.1h6.107c.505 0 .657.052.657.052s.05.102.05.255v1.58c0 .204-.05.255-.05.255-.051 0-.202.102-.657.102h-6.107v-2.243zM132.541 25.85h-4.392v14.481h4.392v-14.48zM147.227 32.53l6.309-6.68h-5.4l-3.634 4.08-3.836-4.08h-5.905l6.914 7.037-6.712 7.393h5.4l4.088-4.69 4.442 4.69h6.006l-7.672-7.75zM54.056 47.827c.253 0 .454-.051.555-.153a.683.683 0 00.202-.51v-.714c0-.204-.05-.408-.202-.51-.1-.102-.302-.153-.555-.153h-2.624v3.161h.807v-1.172h.606l1.16 1.172h1.162l-1.414-1.172h.303v.05zM52.24 46.45h1.514c.152 0 .202 0 .202.05.05.052.05.103.05.154v.357c0 .05 0 .102-.05.153 0 0-.1.05-.202.05H52.24v-.764zM61.98 45.838h-2.22c-.303 0-.505.05-.606.153-.1.102-.151.306-.151.612v1.631c0 .306.05.51.151.612.101.102.303.153.606.153h2.22c.304 0 .506-.05.607-.153.1-.102.15-.306.15-.612v-1.631c0-.306-.05-.51-.15-.612-.051-.102-.253-.153-.606-.153zm.051 2.498h-2.22v-1.835h2.22v1.835zM70.107 47.367c.1-.05.151-.05.202-.152.1-.102.151-.204.151-.408v-.357c0-.204-.05-.357-.151-.46-.101-.101-.303-.152-.555-.152h-2.625v3.161h2.423c.302 0 .555-.05.706-.153.152-.102.252-.255.252-.51v-.408a.582.582 0 00-.15-.407c-.102-.052-.152-.102-.253-.154zm-2.221.306h1.565c.151 0 .202.051.252.051.05.051.05.102.05.153v.255c0 .102 0 .153-.05.153 0 0-.101.051-.252.051h-1.565v-.663zm1.817-.764c0 .05 0 .102-.05.153-.051 0-.101.05-.202.05h-1.565v-.611h1.565c.151 0 .202 0 .202.05.05 0 .05.052.05.154v.204zM77.626 45.838h-2.22c-.303 0-.505.05-.606.153-.101.102-.152.306-.152.612v1.631c0 .306.05.51.152.612.1.102.303.153.606.153h2.22c.303 0 .505-.05.606-.153.1-.102.151-.306.151-.612v-1.631c0-.306-.05-.51-.151-.612-.101-.102-.303-.153-.606-.153zm0 2.498h-2.22v-1.835h2.22v1.835zM82.068 46.5h1.363V49h.808v-2.5H85.6v-.662h-3.533v.663zM90.094 45.838h-.808v3.161h.808v-3.161zM97.008 45.838H95.19c-.303 0-.505.05-.606.153-.1.102-.151.306-.151.612v1.631c0 .306.05.51.151.612.1.102.303.153.606.153h1.817c.303 0 .504-.05.605-.153.101-.102.152-.306.152-.612v-.408l-.808-.153v.663H95.14v-1.835h1.817v.56l.808-.101v-.306c0-.306-.05-.51-.152-.612-.1-.153-.302-.204-.605-.204zM104.528 47.01h-1.817v-.56h1.867v.357l.707-.153v-.102c0-.255-.051-.46-.151-.561-.101-.102-.303-.153-.606-.153h-1.716c-.303 0-.505.05-.606.153-.101.102-.151.306-.151.612v.357c0 .306.05.51.151.611.101.102.303.154.606.154h1.817v.611h-2.019v-.408l-.707.153v.102c0 .306.051.51.152.612.101.102.303.153.605.153h1.868c.303 0 .505-.05.656-.153.101-.102.151-.306.151-.612v-.407c0-.307-.05-.51-.151-.612-.151-.051-.353-.153-.656-.153zM117.399 47.01h-1.817v-.56h1.867v.357l.707-.153v-.102c0-.255-.051-.46-.202-.561-.101-.102-.303-.153-.606-.153h-1.716c-.303 0-.505.05-.606.153-.1.102-.151.306-.151.612v.357c0 .306.051.51.151.611.101.102.303.154.606.154h1.817v.611h-2.019v-.408l-.706.153v.102c0 .306.05.51.151.612.101.102.303.153.606.153h1.867c.303 0 .505-.05.606-.153.101-.102.151-.306.151-.612v-.407c0-.307-.05-.51-.151-.612-.051-.051-.253-.153-.555-.153zM123.758 47.01l-1.01-1.172h-1.06l1.616 1.733V49h.807v-1.428l1.615-1.733h-.959l-1.009 1.173zM131.884 47.01h-1.817v-.56h1.868v.357l.706-.153v-.102c0-.255-.05-.46-.151-.561-.101-.102-.303-.153-.606-.153h-1.716c-.303 0-.504.05-.605.153-.101.102-.152.306-.152.612v.357c0 .306.051.51.152.611.101.102.302.154.605.154h1.817v.611h-2.019v-.408l-.706.153v.102c0 .306.05.51.151.612.101.102.303.153.606.153h1.867c.303 0 .505-.05.606-.153.101-.102.151-.306.151-.612v-.407c0-.307-.05-.51-.151-.612-.101-.051-.303-.153-.606-.153zM136.275 46.5h1.414V49h.757v-2.5h1.413v-.662h-3.584v.663zM144.351 47.673h1.362v-.611h-1.362v-.612h2.372v-.612h-3.18v3.161h3.23v-.663h-2.422v-.663zM154.293 45.838l-1.362 1.835-1.414-1.835h-.656v3.161h.656v-1.937-.102c0 .05.051.102.101.102l1.161 1.53h.202l1.161-1.53c0-.051.051-.051.051-.102v2.039h.757v-3.161h-.657zM155 42.626H51.38v.306H155v-.306zM50.523 11.115h-.858v-.51h2.322v.51h-.858v2.346h-.606v-2.346zM52.29 10.555h.857l.657 1.937.605-1.937h.858v2.855h-.605v-2.04l-.707 2.04h-.454l-.707-1.989v1.989h-.605v-2.855h.1z"/></g><defs><clipPath id="clip0"><path fill="#fff" d="M0 0h155v49H0z"/></clipPath></defs></svg>