<svg id="圖層_1" data-name="圖層 1" xmlns="http://www.w3.org/2000/svg" xmlns:xlink="http://www.w3.org/1999/xlink" viewBox="0 0 480.3 143.1"><defs><style>.cls-1{fill:url(#未命名漸層_17);}.cls-2{fill:#809ec8;}.cls-3{mask:url(#mask);}.cls-4{opacity:0.65;fill:url(#未命名漸層_14);}.cls-5{fill:#fff;}</style><linearGradient id="未命名漸層_17" x1="878.84" y1="298.2" x2="840.22" y2="329.1" gradientTransform="translate(-313.4 -745.1) rotate(45)" gradientUnits="userSpaceOnUse"><stop offset="0" stop-color="#231815"/><stop offset="1" stop-color="#fff"/></linearGradient><mask id="mask" x="0" y="23.07" width="120" height="120.01" maskUnits="userSpaceOnUse"><rect class="cls-1" x="17.6" y="40.6" width="84.9" height="84.86" transform="translate(-41.2 66.8) rotate(-45)"/></mask><linearGradient id="未命名漸層_14" x1="878.84" y1="298.2" x2="840.22" y2="329.1" gradientTransform="translate(-313.4 -745.1) rotate(45)" gradientUnits="userSpaceOnUse"><stop offset="0" stop-color="#dae1ef"/><stop offset="1" stop-color="#809ec8"/></linearGradient></defs><title>Matrix LOGO_商標申請</title><polygon class="cls-2" points="0.2 76.3 0.2 23.3 53.2 23.3 0.2 76.3"/><polygon class="cls-2" points="0.2 89.9 0.2 142.9 53.2 142.9 0.2 89.9"/><polygon class="cls-2" points="119.8 89.9 119.8 142.9 66.8 142.9 119.8 89.9"/><g class="cls-3"><rect class="cls-4" x="17.6" y="40.6" width="84.9" height="84.86" transform="translate(-41.2 66.8) rotate(-45)"/></g><path class="cls-5" d="M68.2,101.7,88,75.1H71.4L62.1,87.8c-.5.8-5.7,6.1-5.7,6.1A24.3,24.3,0,0,1,47.1,98a24,24,0,0,1-4.6.5A23.9,23.9,0,0,1,25,90.6v52.3H48.3v-35l33.6,35h27.4Z"/><rect class="cls-5" x="149.7" y="42.6" width="4.5" height="17.26" transform="translate(14.5 133.8) rotate(-49.6)"/><path class="cls-5" d="M149,39.9a8.7,8.7,0,0,0-3.6-5.3S102.6,2,101.2,1.3h0a11.9,11.9,0,0,0-7.9-1,12.2,12.2,0,0,0-9.5,14.5,12.6,12.6,0,0,0,4.1,6.8h0c1.2,1,48.9,27.5,49.1,27.6h.1a8.3,8.3,0,0,0,5.4.7A8.4,8.4,0,0,0,149,39.9ZM97.3,19.6a7.5,7.5,0,1,1,5.9-8.9A7.5,7.5,0,0,1,97.3,19.6Zm44.5,27.1a5.2,5.2,0,1,1,4-6.1A5.1,5.1,0,0,1,141.8,46.7Z"/><path class="cls-5" d="M182.6,65.9a4.5,4.5,0,0,1-6.4.6L156,49.5a4.5,4.5,0,0,1-.6-6.3h0a4.5,4.5,0,0,1,6.4-.6l20.2,17a4.5,4.5,0,0,1,.6,6.3Z"/><path class="cls-5" d="M163,60.4a3.9,3.9,0,0,1-5.5.5l-7-5.9a3.9,3.9,0,0,1-.5-5.4h0a3.9,3.9,0,0,1,5.5-.5l7,5.8a4,4,0,0,1,.5,5.5Z"/><path class="cls-5" d="M161.7,69.5a4,4,0,0,1-5.5.5l-10.7-9a3.9,3.9,0,0,1-.4-5.5h0a3.9,3.9,0,0,1,5.4-.5l10.7,9a3.9,3.9,0,0,1,.5,5.5Z"/><polygon class="cls-5" points="155.6 43 145.2 55.4 153.5 62.4 163.2 50.1 155.6 43"/><path class="cls-5" d="M86.3,25.9h0l-.9-.6a17.7,17.7,0,0,1-5.8-9.9,16.3,16.3,0,0,1-.3-3.1L30.4,61a10.9,10.9,0,0,0-1.8,1.9h-.2A18.6,18.6,0,0,0,46.2,93.3a17.9,17.9,0,0,0,10.4-6.1h.1l1.5-2L97.1,32.2C92,29.3,88,27,86.3,25.9ZM44.8,86.3a11.4,11.4,0,1,1,8.9-13.5A11.4,11.4,0,0,1,44.8,86.3Z"/><polygon class="cls-5" points="202.6 97.1 185.6 75.3 175.5 75.3 175.5 117.5 186.7 117.5 186.7 95 200.1 112.9 203.8 112.9 217.1 95.3 217.1 117.5 229.3 117.5 229.3 75.3 219.2 75.3 202.6 97.1"/><path class="cls-5" d="M259.1,75.3l-23.9,42.2h13.5l4.5-8.4h21.7l4.6,8.4h14.6L270,75.3Zm10,22.9h-10l5.1-9.2Z"/><polygon class="cls-5" points="287.3 86.2 304.8 86.2 304.8 117.5 317.7 117.5 317.7 86.2 335.3 86.2 335.3 75.3 287.3 75.3 287.3 86.2"/><path class="cls-5" d="M384.6,100.8a9.1,9.1,0,0,0,2.8-7.1v-9c0-3.2-1-5.6-2.8-7.2s-4.3-2.2-7.9-2.2H342.1v42.2h12.8V103.1h5.6l15.3,14.4H395l-17.6-14.4c3.2-.1,5.6-.8,7.2-2.3M354.9,85.9h17.9a5.9,5.9,0,0,1,1.9.2,3.8,3.8,0,0,1,.1.8v4.6a2,2,0,0,1-.1.8,6.7,6.7,0,0,1-1.9.2H354.9Z"/><rect class="cls-5" x="401.4" y="75.3" width="12.9" height="42.16"/><polygon class="cls-5" points="457.5 94.8 476 75.3 460.2 75.3 449.5 87.3 438.2 75.3 420.8 75.3 441.2 95.9 421.3 117.5 437.3 117.5 449.3 103.7 462.4 117.5 480.1 117.5 457.5 94.8"/><path class="cls-5" d="M183.2,139.4a2.4,2.4,0,0,0,1.6-.4,1.6,1.6,0,0,0,.5-1.4v-2.1c0-.7-.1-1.1-.5-1.4a2.3,2.3,0,0,0-1.6-.5h-7.7v9.2h2.3v-3.4h1.7l3.6,3.4h3.4l-4.1-3.4Zm-5.4-4h4.5c.4,0,.6.1.6.2s.2.2.2.4v1.1a.5.5,0,0,1-.2.4h-5.1Z"/><path class="cls-5" d="M206.6,133.6H200a2.6,2.6,0,0,0-1.8.5c-.4.3-.5.9-.5,1.8v4.7c0,.8.1,1.4.5,1.7a2.6,2.6,0,0,0,1.8.5h6.6a2.6,2.6,0,0,0,1.8-.5,2.5,2.5,0,0,0,.5-1.7v-4.7a1.9,1.9,0,0,0-2.3-2.3m0,7.2H200v-5.3h6.6Z"/><path class="cls-5" d="M230.4,138.1c.2-.1.5-.2.6-.4a1.6,1.6,0,0,0,.5-1.1v-1.1a1.7,1.7,0,0,0-.6-1.4,2.2,2.2,0,0,0-1.6-.5h-7.7v9.2h7.2a3.4,3.4,0,0,0,2-.5,1.5,1.5,0,0,0,.7-1.4v-1.1a1.8,1.8,0,0,0-.4-1.3l-.7-.4m-6.5.8h4.6a1,1,0,0,1,.7.2c.1.1.1.2.1.5v.7a.7.7,0,0,1-.1.5h-5.3Zm5.4-2.2a.5.5,0,0,1-.2.4h-5.2v-1.8h5.2c.1,0,.2.2.2.4Z"/><path class="cls-5" d="M252.5,133.6H246a2.6,2.6,0,0,0-1.8.5c-.4.3-.5.9-.5,1.8v4.7c0,.8.1,1.4.5,1.7a2.6,2.6,0,0,0,1.8.5h6.5a2.7,2.7,0,0,0,1.9-.5,2.5,2.5,0,0,0,.5-1.7v-4.7a2.6,2.6,0,0,0-.5-1.8,2.7,2.7,0,0,0-1.9-.5m.1,7.2H246v-5.3h6.6Z"/><polygon class="cls-5" points="265.6 135.5 269.6 135.5 269.6 142.8 272 142.8 272 135.5 276.1 135.5 276.1 133.6 265.6 133.6 265.6 135.5"/><rect class="cls-5" x="286.9" y="133.6" width="2.3" height="9.15"/><path class="cls-5" d="M309.6,133.6h-5.3a2.6,2.6,0,0,0-1.8.5c-.4.3-.5.9-.5,1.8v4.7c0,.8.1,1.4.5,1.7a2.6,2.6,0,0,0,1.8.5h5.3a3.1,3.1,0,0,0,1.9-.5,2.5,2.5,0,0,0,.5-1.7v-1.2l-2.4-.5v1.9h-5.3v-5.3h5.3v1.7l2.4-.4v-.9a2.6,2.6,0,0,0-.5-1.8,3.1,3.1,0,0,0-1.9-.5"/><path class="cls-5" d="M331.8,137.1h-5.4v-1.6h5.5v1l2.1-.5v-.3a1.9,1.9,0,0,0-.5-1.6,2.6,2.6,0,0,0-1.8-.5h-5a2.9,2.9,0,0,0-1.9.5,2.6,2.6,0,0,0-.5,1.8v1a2.5,2.5,0,0,0,.5,1.7,2.9,2.9,0,0,0,1.9.5h5.4v1.7h-6v-1l-2.1.4v.4c0,.8.1,1.4.5,1.7a2.6,2.6,0,0,0,1.8.5h5.5a3.1,3.1,0,0,0,1.9-.5,2.5,2.5,0,0,0,.5-1.7v-1.3a2.5,2.5,0,0,0-.5-1.7,3.1,3.1,0,0,0-1.9-.5"/><path class="cls-5" d="M369.6,137.1h-5.4v-1.6h5.6v1l2.1-.5v-.3a2,2,0,0,0-.6-1.6,2.6,2.6,0,0,0-1.8-.5h-5a3.1,3.1,0,0,0-1.9.5,2.6,2.6,0,0,0-.5,1.8v1a2.5,2.5,0,0,0,.5,1.7,3.1,3.1,0,0,0,1.9.5h5.4v1.7h-6v-1l-2.1.4v.4c0,.8.1,1.4.5,1.7a2.6,2.6,0,0,0,1.8.5h5.5a3.1,3.1,0,0,0,1.9-.5,2.5,2.5,0,0,0,.5-1.7v-1.3a2.5,2.5,0,0,0-.5-1.7,3.1,3.1,0,0,0-1.9-.5"/><polygon class="cls-5" points="388.4 137 385.4 133.7 385.4 133.6 382.3 133.6 387.1 138.7 387.1 142.8 389.4 142.8 389.4 138.7 394.2 133.6 391.4 133.6 388.4 137"/><path class="cls-5" d="M412.3,137.1h-5.4v-1.6h5.6v1l2.1-.5v-.3a2,2,0,0,0-.6-1.6,2.6,2.6,0,0,0-1.8-.5h-5a3.1,3.1,0,0,0-1.9.5,2.6,2.6,0,0,0-.5,1.8v1a2.5,2.5,0,0,0,.5,1.7,3.1,3.1,0,0,0,1.9.5h5.4v1.7h-6v-1l-2.1.4v.4c0,.8.1,1.4.5,1.7a2.6,2.6,0,0,0,1.8.5h5.5a3.1,3.1,0,0,0,1.9-.5,2.5,2.5,0,0,0,.5-1.7v-1.3a2.5,2.5,0,0,0-.5-1.7,3.1,3.1,0,0,0-1.9-.5"/><polygon class="cls-5" points="425.3 135.5 429.4 135.5 429.4 142.8 431.7 142.8 431.7 135.5 435.8 135.5 435.8 133.6 425.3 133.6 425.3 135.5"/><polygon class="cls-5" points="449 138.9 453.1 138.9 453.1 137.1 449 137.1 449 135.4 456 135.4 456 133.6 446.7 133.6 446.7 142.8 456.1 142.8 456.1 140.8 449 140.8 449 138.9"/><path class="cls-5" d="M478.3,133.6l-4.1,5.3-4.1-5.3h-1.8v9.2h1.9v-5.9l.2.3,3.4,4.5h.6l3.3-4.5.3-.3a.4.4,0,0,0-.1.3v5.6h2.2v-9.2Z"/><rect class="cls-5" x="175.3" y="124.2" width="305.1" height="0.85"/><path class="cls-5" d="M177,33.6a5.4,5.4,0,1,0,5.4,5.4A5.4,5.4,0,0,0,177,33.6Zm0,9.9a4.5,4.5,0,1,1,4.5-4.5A4.5,4.5,0,0,1,177,43.5Z"/><path class="cls-5" d="M174.4,42.4V36h4.2a1.7,1.7,0,0,1,.8.6,2,2,0,0,1,.3,1.1,2.1,2.1,0,0,1-.5,1.2,2,2,0,0,1-1.2.6,1.8,1.8,0,0,1,.7.5l.7,1,.8,1.3h-1.6l-.9-1.4a4.5,4.5,0,0,0-.7-.9c-.1-.2-.2-.3-.4-.3h-.9v2.7Zm1.3-3.7h2.1c.2,0,.3-.1.4-.3a.7.7,0,0,0,.1-.5.9.9,0,0,0-.1-.5l-.5-.2h-2Z"/></svg>